<?xml version="1.0" encoding="UTF-8" standalone="no"?>
<!DOCTYPE svg PUBLIC "-//W3C//DTD SVG 1.1//EN"
 "http://www.w3.org/Graphics/SVG/1.1/DTD/svg11.dtd">
<!-- Generated by graphviz version 2.38.0 (20140413.2041)
 -->
<!-- Title: G Pages: 1 -->
<svg width="950pt" height="1090pt"
 viewBox="0.00 0.00 950.06 1090.00" xmlns="http://www.w3.org/2000/svg" xmlns:xlink="http://www.w3.org/1999/xlink">
<g id="graph0" class="graph" transform="scale(1 1) rotate(0) translate(4 1086)">
<title>G</title>
<polygon fill="white" stroke="none" points="-4,4 -4,-1086 946.062,-1086 946.062,4 -4,4"/>
<g id="clust1" class="cluster"><title>cluster_Global</title>
<path fill="none" stroke="gray" d="M215.781,-152C215.781,-152 922.062,-152 922.062,-152 928.062,-152 934.062,-158 934.062,-164 934.062,-164 934.062,-1062 934.062,-1062 934.062,-1068 928.062,-1074 922.062,-1074 922.062,-1074 215.781,-1074 215.781,-1074 209.781,-1074 203.781,-1068 203.781,-1062 203.781,-1062 203.781,-164 203.781,-164 203.781,-158 209.781,-152 215.781,-152"/>
<text text-anchor="middle" x="568.922" y="-1061.2" font-family="Times New Roman,serif" font-size="11.00" fill="gray">Global</text>
</g>
<g id="clust17" class="cluster"><title>cluster_\lib</title>
<path fill="none" stroke="gray" d="M843.562,-160C843.562,-160 889.562,-160 889.562,-160 895.562,-160 901.562,-166 901.562,-172 901.562,-172 901.562,-220 901.562,-220 901.562,-226 895.562,-232 889.562,-232 889.562,-232 843.562,-232 843.562,-232 837.562,-232 831.562,-226 831.562,-220 831.562,-220 831.562,-172 831.562,-172 831.562,-166 837.562,-160 843.562,-160"/>
<text text-anchor="middle" x="866.562" y="-219.2" font-family="Times New Roman,serif" font-size="11.00" fill="gray">lib</text>
</g>
<g id="clust2" class="cluster"><title>cluster_\app</title>
<path fill="none" stroke="gray" d="M223.781,-240C223.781,-240 914.062,-240 914.062,-240 920.062,-240 926.062,-246 926.062,-252 926.062,-252 926.062,-1034 926.062,-1034 926.062,-1040 920.062,-1046 914.062,-1046 914.062,-1046 223.781,-1046 223.781,-1046 217.781,-1046 211.781,-1040 211.781,-1034 211.781,-1034 211.781,-252 211.781,-252 211.781,-246 217.781,-240 223.781,-240"/>
<text text-anchor="middle" x="568.922" y="-1033.2" font-family="Times New Roman,serif" font-size="11.00" fill="gray">app</text>
</g>
<g id="clust3" class="cluster"><title>cluster_\app\www</title>
<path fill="none" stroke="gray" d="M668.268,-614C668.268,-614 906.062,-614 906.062,-614 912.062,-614 918.062,-620 918.062,-626 918.062,-626 918.062,-1006 918.062,-1006 918.062,-1012 912.062,-1018 906.062,-1018 906.062,-1018 668.268,-1018 668.268,-1018 662.268,-1018 656.268,-1012 656.268,-1006 656.268,-1006 656.268,-626 656.268,-626 656.268,-620 662.268,-614 668.268,-614"/>
<text text-anchor="middle" x="787.165" y="-1005.2" font-family="Times New Roman,serif" font-size="11.00" fill="gray">www</text>
</g>
<g id="clust4" class="cluster"><title>cluster_\app\www\controller</title>
<path fill="none" stroke="gray" d="M676.268,-702C676.268,-702 898.062,-702 898.062,-702 904.062,-702 910.062,-708 910.062,-714 910.062,-714 910.062,-978 910.062,-978 910.062,-984 904.062,-990 898.062,-990 898.062,-990 676.268,-990 676.268,-990 670.268,-990 664.268,-984 664.268,-978 664.268,-978 664.268,-714 664.268,-714 664.268,-708 670.268,-702 676.268,-702"/>
<text text-anchor="middle" x="787.165" y="-977.2" font-family="Times New Roman,serif" font-size="11.00" fill="gray">controller</text>
</g>
<g id="clust5" class="cluster"><title>cluster_\app\www\widget</title>
<path fill="none" stroke="gray" d="M843.562,-622C843.562,-622 889.562,-622 889.562,-622 895.562,-622 901.562,-628 901.562,-634 901.562,-634 901.562,-682 901.562,-682 901.562,-688 895.562,-694 889.562,-694 889.562,-694 843.562,-694 843.562,-694 837.562,-694 831.562,-688 831.562,-682 831.562,-682 831.562,-634 831.562,-634 831.562,-628 837.562,-622 843.562,-622"/>
<text text-anchor="middle" x="866.562" y="-681.2" font-family="Times New Roman,serif" font-size="11.00" fill="gray">widget</text>
</g>
<g id="clust12" class="cluster"><title>cluster_\app\api</title>
<path fill="none" stroke="gray" d="M668.268,-498C668.268,-498 897.562,-498 897.562,-498 903.562,-498 909.562,-504 909.562,-510 909.562,-510 909.562,-594 909.562,-594 909.562,-600 903.562,-606 897.562,-606 897.562,-606 668.268,-606 668.268,-606 662.268,-606 656.268,-600 656.268,-594 656.268,-594 656.268,-510 656.268,-510 656.268,-504 662.268,-498 668.268,-498"/>
<text text-anchor="middle" x="782.915" y="-593.2" font-family="Times New Roman,serif" font-size="11.00" fill="gray">api</text>
</g>
<g id="clust13" class="cluster"><title>cluster_\app\api\controller</title>
<path fill="none" stroke="gray" d="M676.268,-506C676.268,-506 889.562,-506 889.562,-506 895.562,-506 901.562,-512 901.562,-518 901.562,-518 901.562,-566 901.562,-566 901.562,-572 895.562,-578 889.562,-578 889.562,-578 676.268,-578 676.268,-578 670.268,-578 664.268,-572 664.268,-566 664.268,-566 664.268,-518 664.268,-518 664.268,-512 670.268,-506 676.268,-506"/>
<text text-anchor="middle" x="782.915" y="-565.2" font-family="Times New Roman,serif" font-size="11.00" fill="gray">controller</text>
</g>
<g id="clust14" class="cluster"><title>cluster_\app\facade</title>
<path fill="none" stroke="gray" d="M835.062,-248C835.062,-248 898.062,-248 898.062,-248 904.062,-248 910.062,-254 910.062,-260 910.062,-260 910.062,-308 910.062,-308 910.062,-314 904.062,-320 898.062,-320 898.062,-320 835.062,-320 835.062,-320 829.062,-320 823.062,-314 823.062,-308 823.062,-308 823.062,-260 823.062,-260 823.062,-254 829.062,-248 835.062,-248"/>
<text text-anchor="middle" x="866.562" y="-307.2" font-family="Times New Roman,serif" font-size="11.00" fill="gray">facade</text>
</g>
<g id="clust15" class="cluster"><title>cluster_\app\management</title>
<path fill="none" stroke="gray" d="M668.268,-328C668.268,-328 902.562,-328 902.562,-328 908.562,-328 914.562,-334 914.562,-340 914.562,-340 914.562,-478 914.562,-478 914.562,-484 908.562,-490 902.562,-490 902.562,-490 668.268,-490 668.268,-490 662.268,-490 656.268,-484 656.268,-478 656.268,-478 656.268,-340 656.268,-340 656.268,-334 662.268,-328 668.268,-328"/>
<text text-anchor="middle" x="785.415" y="-477.2" font-family="Times New Roman,serif" font-size="11.00" fill="gray">management</text>
</g>
<g id="clust16" class="cluster"><title>cluster_\app\management\controller</title>
<path fill="none" stroke="gray" d="M676.268,-336C676.268,-336 894.562,-336 894.562,-336 900.562,-336 906.562,-342 906.562,-348 906.562,-348 906.562,-450 906.562,-450 906.562,-456 900.562,-462 894.562,-462 894.562,-462 676.268,-462 676.268,-462 670.268,-462 664.268,-456 664.268,-450 664.268,-450 664.268,-348 664.268,-348 664.268,-342 670.268,-336 676.268,-336"/>
<text text-anchor="middle" x="785.415" y="-449.2" font-family="Times New Roman,serif" font-size="11.00" fill="gray">controller</text>
</g>
<g id="clust6" class="cluster"><title>cluster_\app\common</title>
<path fill="none" stroke="gray" d="M231.781,-248C231.781,-248 571.473,-248 571.473,-248 577.473,-248 583.473,-254 583.473,-260 583.473,-260 583.473,-988 583.473,-988 583.473,-994 577.473,-1000 571.473,-1000 571.473,-1000 231.781,-1000 231.781,-1000 225.781,-1000 219.781,-994 219.781,-988 219.781,-988 219.781,-260 219.781,-260 219.781,-254 225.781,-248 231.781,-248"/>
<text text-anchor="middle" x="401.627" y="-987.2" font-family="Times New Roman,serif" font-size="11.00" fill="gray">common</text>
</g>
<g id="clust10" class="cluster"><title>cluster_\app\common\exception</title>
<path fill="none" stroke="gray" d="M485.473,-550C485.473,-550 531.473,-550 531.473,-550 537.473,-550 543.473,-556 543.473,-562 543.473,-562 543.473,-664 543.473,-664 543.473,-670 537.473,-676 531.473,-676 531.473,-676 485.473,-676 485.473,-676 479.473,-676 473.473,-670 473.473,-664 473.473,-664 473.473,-562 473.473,-562 473.473,-556 479.473,-550 485.473,-550"/>
<text text-anchor="middle" x="508.473" y="-663.2" font-family="Times New Roman,serif" font-size="11.00" fill="gray">exception</text>
</g>
<g id="clust11" class="cluster"><title>cluster_\app\common\controller</title>
<path fill="none" stroke="gray" d="M456.973,-470C456.973,-470 559.973,-470 559.973,-470 565.973,-470 571.973,-476 571.973,-482 571.973,-482 571.973,-530 571.973,-530 571.973,-536 565.973,-542 559.973,-542 559.973,-542 456.973,-542 456.973,-542 450.973,-542 444.973,-536 444.973,-530 444.973,-530 444.973,-482 444.973,-482 444.973,-476 450.973,-470 456.973,-470"/>
<text text-anchor="middle" x="508.473" y="-529.2" font-family="Times New Roman,serif" font-size="11.00" fill="gray">controller</text>
</g>
<g id="clust7" class="cluster"><title>cluster_\app\common\service</title>
<path fill="none" stroke="gray" d="M239.781,-684C239.781,-684 563.473,-684 563.473,-684 569.473,-684 575.473,-690 575.473,-696 575.473,-696 575.473,-960 575.473,-960 575.473,-966 569.473,-972 563.473,-972 563.473,-972 239.781,-972 239.781,-972 233.781,-972 227.781,-966 227.781,-960 227.781,-960 227.781,-696 227.781,-696 227.781,-690 233.781,-684 239.781,-684"/>
<text text-anchor="middle" x="401.627" y="-959.2" font-family="Times New Roman,serif" font-size="11.00" fill="gray">service</text>
</g>
<g id="clust8" class="cluster"><title>cluster_\app\common\tool</title>
<path fill="none" stroke="gray" d="M476.973,-390C476.973,-390 539.973,-390 539.973,-390 545.973,-390 551.973,-396 551.973,-402 551.973,-402 551.973,-450 551.973,-450 551.973,-456 545.973,-462 539.973,-462 539.973,-462 476.973,-462 476.973,-462 470.973,-462 464.973,-456 464.973,-450 464.973,-450 464.973,-402 464.973,-402 464.973,-396 470.973,-390 476.973,-390"/>
<text text-anchor="middle" x="508.473" y="-449.2" font-family="Times New Roman,serif" font-size="11.00" fill="gray">tool</text>
</g>
<g id="clust9" class="cluster"><title>cluster_\app\common\model</title>
<path fill="none" stroke="gray" d="M258.281,-256C258.281,-256 539.973,-256 539.973,-256 545.973,-256 551.973,-262 551.973,-268 551.973,-268 551.973,-370 551.973,-370 551.973,-376 545.973,-382 539.973,-382 539.973,-382 258.281,-382 258.281,-382 252.281,-382 246.281,-376 246.281,-370 246.281,-370 246.281,-268 246.281,-268 246.281,-262 252.281,-256 258.281,-256"/>
<text text-anchor="middle" x="399.127" y="-369.2" font-family="Times New Roman,serif" font-size="11.00" fill="gray">model</text>
</g>
<!-- \\app\\www\\controller\\User -->
<g id="node1" class="node"><title>\\app\\www\\controller\\User</title>
<polygon fill="none" stroke="black" points="893.562,-962 839.562,-962 839.562,-926 893.562,-926 893.562,-962"/>
<text text-anchor="middle" x="866.562" y="-941.2" font-family="Courier,monospace" font-size="11.00">User</text>
</g>
<!-- \\app\\www\\controller\\Base -->
<g id="node4" class="node"><title>\\app\\www\\controller\\Base</title>
<polygon fill="none" stroke="black" points="726.268,-827 672.268,-827 672.268,-791 726.268,-791 726.268,-827"/>
<text text-anchor="middle" x="699.268" y="-806.2" font-family="Courier,monospace" font-size="11.00">Base</text>
</g>
<!-- \\app\\www\\controller\\User&#45;&gt;\\app\\www\\controller\\Base -->
<g id="edge1" class="edge"><title>\\app\\www\\controller\\User&#45;&gt;\\app\\www\\controller\\Base</title>
<path fill="none" stroke="black" d="M839.509,-928.35C833.971,-924.776 828.237,-920.882 823.062,-917 788.021,-890.709 750.611,-856.876 726.417,-834.143"/>
<polygon fill="none" stroke="black" points="728.718,-831.502 719.047,-827.176 723.91,-836.589 728.718,-831.502"/>
</g>
<!-- \\app\\www\\controller\\Article -->
<g id="node2" class="node"><title>\\app\\www\\controller\\Article</title>
<polygon fill="none" stroke="black" points="898.562,-908 834.562,-908 834.562,-872 898.562,-872 898.562,-908"/>
<text text-anchor="middle" x="866.562" y="-887.2" font-family="Courier,monospace" font-size="11.00">Article</text>
</g>
<!-- \\app\\www\\controller\\Article&#45;&gt;\\app\\www\\controller\\Base -->
<g id="edge3" class="edge"><title>\\app\\www\\controller\\Article&#45;&gt;\\app\\www\\controller\\Base</title>
<path fill="none" stroke="black" d="M834.472,-874.765C806.287,-860.953 764.782,-840.614 735.405,-826.218"/>
<polygon fill="none" stroke="black" points="736.845,-823.027 726.325,-821.769 733.765,-829.312 736.845,-823.027"/>
</g>
<!-- \\app\\www\\controller\\Test -->
<g id="node3" class="node"><title>\\app\\www\\controller\\Test</title>
<polygon fill="none" stroke="black" points="893.562,-854 839.562,-854 839.562,-818 893.562,-818 893.562,-854"/>
<text text-anchor="middle" x="866.562" y="-833.2" font-family="Courier,monospace" font-size="11.00">Test</text>
</g>
<!-- \\app\\www\\controller\\Test&#45;&gt;\\app\\www\\controller\\Base -->
<g id="edge5" class="edge"><title>\\app\\www\\controller\\Test&#45;&gt;\\app\\www\\controller\\Base</title>
<path fill="none" stroke="black" d="M839.371,-831.722C811.563,-827.18 767.422,-819.969 736.336,-814.892"/>
<polygon fill="none" stroke="black" points="736.77,-811.416 726.336,-813.258 735.641,-818.325 736.77,-811.416"/>
</g>
<!-- \\app\\common\\controller\\BaseController -->
<g id="node20" class="node"><title>\\app\\common\\controller\\BaseController</title>
<polygon fill="none" stroke="black" points="563.973,-514 452.973,-514 452.973,-478 563.973,-478 563.973,-514"/>
<text text-anchor="middle" x="508.473" y="-493.2" font-family="Courier,monospace" font-size="11.00">BaseController</text>
</g>
<!-- \\app\\www\\controller\\Base&#45;&gt;\\app\\common\\controller\\BaseController -->
<g id="edge7" class="edge"><title>\\app\\www\\controller\\Base&#45;&gt;\\app\\common\\controller\\BaseController</title>
<path fill="none" stroke="black" d="M694.112,-790.859C682.947,-745.335 648.643,-624.311 583.473,-546 575.099,-535.938 564.2,-527.074 553.351,-519.713"/>
<polygon fill="none" stroke="black" points="555.012,-516.619 544.712,-514.137 551.216,-522.501 555.012,-516.619"/>
</g>
<!-- \\app\\www\\controller\\Index -->
<g id="node5" class="node"><title>\\app\\www\\controller\\Index</title>
<polygon fill="none" stroke="black" points="893.562,-800 839.562,-800 839.562,-764 893.562,-764 893.562,-800"/>
<text text-anchor="middle" x="866.562" y="-779.2" font-family="Courier,monospace" font-size="11.00">Index</text>
</g>
<!-- \\app\\www\\controller\\Index&#45;&gt;\\app\\www\\controller\\Base -->
<g id="edge10" class="edge"><title>\\app\\www\\controller\\Index&#45;&gt;\\app\\www\\controller\\Base</title>
<path fill="none" stroke="black" d="M839.371,-786.278C811.563,-790.82 767.422,-798.031 736.336,-803.108"/>
<polygon fill="none" stroke="black" points="735.641,-799.675 726.336,-804.742 736.77,-806.584 735.641,-799.675"/>
</g>
<!-- \\app\\www\\controller\\UserFile -->
<g id="node6" class="node"><title>\\app\\www\\controller\\UserFile</title>
<polygon fill="none" stroke="black" points="902.062,-746 831.062,-746 831.062,-710 902.062,-710 902.062,-746"/>
<text text-anchor="middle" x="866.562" y="-725.2" font-family="Courier,monospace" font-size="11.00">UserFile</text>
</g>
<!-- \\app\\www\\controller\\UserFile&#45;&gt;\\app\\www\\controller\\Base -->
<g id="edge20" class="edge"><title>\\app\\www\\controller\\UserFile&#45;&gt;\\app\\www\\controller\\Base</title>
<path fill="none" stroke="black" d="M830.911,-744.98C802.929,-758.693 763.713,-777.91 735.561,-791.705"/>
<polygon fill="none" stroke="black" points="733.909,-788.617 726.47,-796.16 736.99,-794.903 733.909,-788.617"/>
</g>
<!-- \\app\\www\\widget\\Index -->
<g id="node7" class="node"><title>\\app\\www\\widget\\Index</title>
<polygon fill="none" stroke="black" points="893.562,-666 839.562,-666 839.562,-630 893.562,-630 893.562,-666"/>
<text text-anchor="middle" x="866.562" y="-645.2" font-family="Courier,monospace" font-size="11.00">Index</text>
</g>
<!-- \\think\\Controller -->
<g id="node32" class="node"><title>\\think\\Controller</title>
<ellipse fill="none" stroke="black" cx="281.281" cy="-18" rx="69.5877" ry="18"/>
<text text-anchor="middle" x="281.281" y="-14.3" font-family="Times New Roman,serif" font-size="14.00" fill="gray">\think\Controller</text>
</g>
<!-- \\app\\www\\widget\\Index&#45;&gt;\\think\\Controller -->
<g id="edge18" class="edge"><title>\\app\\www\\widget\\Index&#45;&gt;\\think\\Controller</title>
<path fill="none" stroke="black" d="M851.591,-629.847C842.345,-617.07 830.583,-599.238 823.062,-582 777.201,-476.874 822.71,-427.414 759.062,-332 641.301,-155.463 567.566,-139.327 377.473,-45 367.357,-39.9801 356.158,-35.7579 345.101,-32.2546"/>
<polygon fill="none" stroke="black" points="346.035,-28.8808 335.451,-29.3592 344.023,-35.5855 346.035,-28.8808"/>
</g>
<!-- \\app\\common\\service\\UserService -->
<g id="node8" class="node"><title>\\app\\common\\service\\UserService</title>
<polygon fill="none" stroke="black" points="553.973,-890 462.973,-890 462.973,-854 553.973,-854 553.973,-890"/>
<text text-anchor="middle" x="508.473" y="-869.2" font-family="Courier,monospace" font-size="11.00">UserService</text>
</g>
<!-- \\app\\common\\service\\BaseService -->
<g id="node13" class="node"><title>\\app\\common\\service\\BaseService</title>
<polygon fill="none" stroke="black" points="326.781,-890 235.781,-890 235.781,-854 326.781,-854 326.781,-890"/>
<text text-anchor="middle" x="281.281" y="-869.2" font-family="Courier,monospace" font-size="11.00">BaseService</text>
</g>
<!-- \\app\\common\\service\\UserService&#45;&gt;\\app\\common\\service\\BaseService -->
<g id="edge2" class="edge"><title>\\app\\common\\service\\UserService&#45;&gt;\\app\\common\\service\\BaseService</title>
<path fill="none" stroke="black" d="M462.713,-872C426.565,-872 375.546,-872 336.978,-872"/>
<polygon fill="none" stroke="black" points="336.957,-868.5 326.957,-872 336.957,-875.5 336.957,-868.5"/>
</g>
<!-- \\app\\common\\service\\UserFileService -->
<g id="node9" class="node"><title>\\app\\common\\service\\UserFileService</title>
<polygon fill="none" stroke="black" points="567.473,-836 449.473,-836 449.473,-800 567.473,-800 567.473,-836"/>
<text text-anchor="middle" x="508.473" y="-815.2" font-family="Courier,monospace" font-size="11.00">UserFileService</text>
</g>
<!-- \\app\\common\\service\\UserFileService&#45;&gt;\\app\\common\\service\\BaseService -->
<g id="edge6" class="edge"><title>\\app\\common\\service\\UserFileService&#45;&gt;\\app\\common\\service\\BaseService</title>
<path fill="none" stroke="black" d="M449.188,-831.977C414.435,-840.31 370.605,-850.82 336.581,-858.979"/>
<polygon fill="none" stroke="black" points="335.719,-855.587 326.81,-861.322 337.351,-862.394 335.719,-855.587"/>
</g>
<!-- \\app\\common\\service\\ArticleService -->
<g id="node10" class="node"><title>\\app\\common\\service\\ArticleService</title>
<polygon fill="none" stroke="black" points="563.973,-944 452.973,-944 452.973,-908 563.973,-908 563.973,-944"/>
<text text-anchor="middle" x="508.473" y="-923.2" font-family="Courier,monospace" font-size="11.00">ArticleService</text>
</g>
<!-- \\app\\common\\service\\ArticleService&#45;&gt;\\app\\common\\service\\BaseService -->
<g id="edge11" class="edge"><title>\\app\\common\\service\\ArticleService&#45;&gt;\\app\\common\\service\\BaseService</title>
<path fill="none" stroke="black" d="M452.96,-912.928C417.774,-904.491 372.166,-893.554 336.949,-885.109"/>
<polygon fill="none" stroke="black" points="337.384,-881.614 326.843,-882.686 335.752,-888.421 337.384,-881.614"/>
</g>
<!-- \\app\\common\\service\\ResponseService -->
<g id="node11" class="node"><title>\\app\\common\\service\\ResponseService</title>
<polygon fill="none" stroke="black" points="567.473,-782 449.473,-782 449.473,-746 567.473,-746 567.473,-782"/>
<text text-anchor="middle" x="508.473" y="-761.2" font-family="Courier,monospace" font-size="11.00">ResponseService</text>
</g>
<!-- \\app\\common\\service\\ManagerService -->
<g id="node12" class="node"><title>\\app\\common\\service\\ManagerService</title>
<polygon fill="none" stroke="black" points="563.973,-728 452.973,-728 452.973,-692 563.973,-692 563.973,-728"/>
<text text-anchor="middle" x="508.473" y="-707.2" font-family="Courier,monospace" font-size="11.00">ManagerService</text>
</g>
<!-- \\app\\common\\tool\\Password -->
<g id="node14" class="node"><title>\\app\\common\\tool\\Password</title>
<polygon fill="none" stroke="black" points="543.973,-434 472.973,-434 472.973,-398 543.973,-398 543.973,-434"/>
<text text-anchor="middle" x="508.473" y="-413.2" font-family="Courier,monospace" font-size="11.00">Password</text>
</g>
<!-- \\app\\common\\model\\UserFile -->
<g id="node15" class="node"><title>\\app\\common\\model\\UserFile</title>
<polygon fill="none" stroke="black" points="543.973,-354 472.973,-354 472.973,-318 543.973,-318 543.973,-354"/>
<text text-anchor="middle" x="508.473" y="-333.2" font-family="Courier,monospace" font-size="11.00">UserFile</text>
</g>
<!-- \\app\\common\\model\\Base -->
<g id="node17" class="node"><title>\\app\\common\\model\\Base</title>
<polygon fill="none" stroke="black" points="308.281,-327 254.281,-327 254.281,-291 308.281,-291 308.281,-327"/>
<text text-anchor="middle" x="281.281" y="-306.2" font-family="Courier,monospace" font-size="11.00">Base</text>
</g>
<!-- \\app\\common\\model\\UserFile&#45;&gt;\\app\\common\\model\\Base -->
<g id="edge8" class="edge"><title>\\app\\common\\model\\UserFile&#45;&gt;\\app\\common\\model\\Base</title>
<path fill="none" stroke="black" d="M472.78,-331.84C431.039,-326.836 361.281,-318.472 318.759,-313.374"/>
<polygon fill="none" stroke="black" points="318.915,-309.867 308.569,-312.152 318.081,-316.817 318.915,-309.867"/>
</g>
<!-- \\app\\common\\model\\User -->
<g id="node16" class="node"><title>\\app\\common\\model\\User</title>
<polygon fill="none" stroke="black" points="535.473,-300 481.473,-300 481.473,-264 535.473,-264 535.473,-300"/>
<text text-anchor="middle" x="508.473" y="-279.2" font-family="Courier,monospace" font-size="11.00">User</text>
</g>
<!-- \\app\\common\\model\\User&#45;&gt;\\app\\common\\model\\Base -->
<g id="edge14" class="edge"><title>\\app\\common\\model\\User&#45;&gt;\\app\\common\\model\\Base</title>
<path fill="none" stroke="black" d="M481.2,-285.15C440.944,-289.977 363.896,-299.215 318.41,-304.668"/>
<polygon fill="none" stroke="black" points="317.899,-301.204 308.387,-305.87 318.733,-308.155 317.899,-301.204"/>
</g>
<!-- \\think\\Model -->
<g id="node33" class="node"><title>\\think\\Model</title>
<ellipse fill="none" stroke="black" cx="56.545" cy="-309" rx="56.59" ry="18"/>
<text text-anchor="middle" x="56.545" y="-305.3" font-family="Times New Roman,serif" font-size="14.00" fill="gray">\think\Model</text>
</g>
<!-- \\app\\common\\model\\Base&#45;&gt;\\think\\Model -->
<g id="edge21" class="edge"><title>\\app\\common\\model\\Base&#45;&gt;\\think\\Model</title>
<path fill="none" stroke="black" d="M253.856,-309C221.958,-309 167.17,-309 123.567,-309"/>
<polygon fill="none" stroke="black" points="123.313,-305.5 113.313,-309 123.313,-312.5 123.313,-305.5"/>
</g>
<!-- \\app\\common\\exception\\Cake -->
<g id="node18" class="node"><title>\\app\\common\\exception\\Cake</title>
<polygon fill="none" stroke="black" points="535.473,-648 481.473,-648 481.473,-612 535.473,-612 535.473,-648"/>
<text text-anchor="middle" x="508.473" y="-627.2" font-family="Courier,monospace" font-size="11.00">Cake</text>
</g>
<!-- \\Exception -->
<g id="node29" class="node"><title>\\Exception</title>
<ellipse fill="none" stroke="black" cx="281.281" cy="-126" rx="50.0912" ry="18"/>
<text text-anchor="middle" x="281.281" y="-122.3" font-family="Times New Roman,serif" font-size="14.00" fill="gray">\Exception</text>
</g>
<!-- \\app\\common\\exception\\Cake&#45;&gt;\\Exception -->
<g id="edge9" class="edge"><title>\\app\\common\\exception\\Cake&#45;&gt;\\Exception</title>
<path fill="none" stroke="black" d="M481.448,-624.794C468.619,-620.904 454.001,-614.244 444.973,-603 345.517,-479.127 442.031,-397.149 377.473,-252 360.056,-212.84 328.413,-174.521 306.414,-150.619"/>
<polygon fill="none" stroke="black" points="308.748,-147.991 299.358,-143.085 303.639,-152.776 308.748,-147.991"/>
</g>
<!-- \\app\\common\\exception\\Json -->
<g id="node19" class="node"><title>\\app\\common\\exception\\Json</title>
<polygon fill="none" stroke="black" points="535.473,-594 481.473,-594 481.473,-558 535.473,-558 535.473,-594"/>
<text text-anchor="middle" x="508.473" y="-573.2" font-family="Courier,monospace" font-size="11.00">Json</text>
</g>
<!-- \\think\\exception\\Handle -->
<g id="node31" class="node"><title>\\think\\exception\\Handle</title>
<ellipse fill="none" stroke="black" cx="281.281" cy="-72" rx="96.3833" ry="18"/>
<text text-anchor="middle" x="281.281" y="-68.3" font-family="Times New Roman,serif" font-size="14.00" fill="gray">\think\exception\Handle</text>
</g>
<!-- \\app\\common\\exception\\Json&#45;&gt;\\think\\exception\\Handle -->
<g id="edge15" class="edge"><title>\\app\\common\\exception\\Json&#45;&gt;\\think\\exception\\Handle</title>
<path fill="none" stroke="black" d="M481.202,-569.652C468.305,-565.175 453.702,-557.808 444.973,-546 325.538,-384.434 510.28,-249.767 377.473,-99 373.783,-94.8106 369.495,-91.2498 364.821,-88.2255"/>
<polygon fill="none" stroke="black" points="366.478,-85.142 356.038,-83.3411 363.076,-91.2599 366.478,-85.142"/>
</g>
<!-- \\app\\common\\controller\\BaseController&#45;&gt;\\think\\Controller -->
<g id="edge16" class="edge"><title>\\app\\common\\controller\\BaseController&#45;&gt;\\think\\Controller</title>
<path fill="none" stroke="black" d="M457.584,-477.938C452.785,-474.578 448.428,-470.63 444.973,-466 331.632,-314.13 503.378,-186.628 377.473,-45 371.27,-38.0231 363.412,-32.7916 354.879,-28.8789"/>
<polygon fill="none" stroke="black" points="355.989,-25.5541 345.403,-25.1306 353.415,-32.0634 355.989,-25.5541"/>
</g>
<!-- \\app\\api\\controller\\Base -->
<g id="node21" class="node"><title>\\app\\api\\controller\\Base</title>
<polygon fill="none" stroke="black" points="726.268,-550 672.268,-550 672.268,-514 726.268,-514 726.268,-550"/>
<text text-anchor="middle" x="699.268" y="-529.2" font-family="Courier,monospace" font-size="11.00">Base</text>
</g>
<!-- \\app\\api\\controller\\Base&#45;&gt;\\app\\common\\controller\\BaseController -->
<g id="edge12" class="edge"><title>\\app\\api\\controller\\Base&#45;&gt;\\app\\common\\controller\\BaseController</title>
<path fill="none" stroke="black" d="M672.016,-526.994C646.858,-522.197 607.87,-514.763 574.385,-508.378"/>
<polygon fill="none" stroke="black" points="574.67,-504.869 564.191,-506.434 573.358,-511.745 574.67,-504.869"/>
</g>
<!-- \\app\\api\\controller\\Index -->
<g id="node22" class="node"><title>\\app\\api\\controller\\Index</title>
<polygon fill="none" stroke="black" points="893.562,-550 839.562,-550 839.562,-514 893.562,-514 893.562,-550"/>
<text text-anchor="middle" x="866.562" y="-529.2" font-family="Courier,monospace" font-size="11.00">Index</text>
</g>
<!-- \\app\\api\\controller\\Index&#45;&gt;\\app\\api\\controller\\Base -->
<g id="edge19" class="edge"><title>\\app\\api\\controller\\Index&#45;&gt;\\app\\api\\controller\\Base</title>
<path fill="none" stroke="black" d="M839.371,-532C811.684,-532 767.806,-532 736.742,-532"/>
<polygon fill="none" stroke="black" points="736.337,-528.5 726.336,-532 736.336,-535.5 736.337,-528.5"/>
</g>
<!-- \\app\\facade\\Password -->
<g id="node23" class="node"><title>\\app\\facade\\Password</title>
<polygon fill="none" stroke="black" points="902.062,-292 831.062,-292 831.062,-256 902.062,-256 902.062,-292"/>
<text text-anchor="middle" x="866.562" y="-271.2" font-family="Courier,monospace" font-size="11.00">Password</text>
</g>
<!-- \\think\\Facade -->
<g id="node30" class="node"><title>\\think\\Facade</title>
<ellipse fill="none" stroke="black" cx="699.268" cy="-126" rx="59.5901" ry="18"/>
<text text-anchor="middle" x="699.268" y="-122.3" font-family="Times New Roman,serif" font-size="14.00" fill="gray">\think\Facade</text>
</g>
<!-- \\app\\facade\\Password&#45;&gt;\\think\\Facade -->
<g id="edge13" class="edge"><title>\\app\\facade\\Password&#45;&gt;\\think\\Facade</title>
<path fill="none" stroke="black" d="M845.238,-255.835C838.212,-249.553 830.29,-242.469 823.062,-236 789.961,-206.376 751.862,-172.241 726.992,-149.953"/>
<polygon fill="none" stroke="black" points="729.188,-147.221 719.405,-143.154 724.516,-152.434 729.188,-147.221"/>
</g>
<!-- \\app\\management\\controller\\Manager -->
<g id="node24" class="node"><title>\\app\\management\\controller\\Manager</title>
<polygon fill="none" stroke="black" points="898.562,-434 834.562,-434 834.562,-398 898.562,-398 898.562,-434"/>
<text text-anchor="middle" x="866.562" y="-413.2" font-family="Courier,monospace" font-size="11.00">Manager</text>
</g>
<!-- \\app\\management\\controller\\Base -->
<g id="node25" class="node"><title>\\app\\management\\controller\\Base</title>
<polygon fill="none" stroke="black" points="726.268,-407 672.268,-407 672.268,-371 726.268,-371 726.268,-407"/>
<text text-anchor="middle" x="699.268" y="-386.2" font-family="Courier,monospace" font-size="11.00">Base</text>
</g>
<!-- \\app\\management\\controller\\Base&#45;&gt;\\app\\common\\controller\\BaseController -->
<g id="edge17" class="edge"><title>\\app\\management\\controller\\Base&#45;&gt;\\app\\common\\controller\\BaseController</title>
<path fill="none" stroke="black" d="M674.54,-407.034C651.934,-423.694 616.54,-448.448 583.473,-466 578.374,-468.707 572.976,-471.326 567.511,-473.816"/>
<polygon fill="none" stroke="black" points="566.034,-470.642 558.292,-477.875 568.855,-477.049 566.034,-470.642"/>
</g>
<!-- \\app\\management\\controller\\Index -->
<g id="node26" class="node"><title>\\app\\management\\controller\\Index</title>
<polygon fill="none" stroke="black" points="893.562,-380 839.562,-380 839.562,-344 893.562,-344 893.562,-380"/>
<text text-anchor="middle" x="866.562" y="-359.2" font-family="Courier,monospace" font-size="11.00">Index</text>
</g>
<!-- \\app\\management\\controller\\Index&#45;&gt;\\app\\management\\controller\\Base -->
<g id="edge22" class="edge"><title>\\app\\management\\controller\\Index&#45;&gt;\\app\\management\\controller\\Base</title>
<path fill="none" stroke="black" d="M839.371,-366.278C811.563,-370.82 767.422,-378.031 736.336,-383.108"/>
<polygon fill="none" stroke="black" points="735.641,-379.675 726.336,-384.742 736.77,-386.584 735.641,-379.675"/>
</g>
<!-- \\lib\\File -->
<g id="node27" class="node"><title>\\lib\\File</title>
<polygon fill="none" stroke="black" points="893.562,-204 839.562,-204 839.562,-168 893.562,-168 893.562,-204"/>
<text text-anchor="middle" x="866.562" y="-183.2" font-family="Courier,monospace" font-size="11.00">File</text>
</g>
<!-- \\think\\File -->
<g id="node28" class="node"><title>\\think\\File</title>
<ellipse fill="none" stroke="black" cx="699.268" cy="-72" rx="46.2923" ry="18"/>
<text text-anchor="middle" x="699.268" y="-68.3" font-family="Times New Roman,serif" font-size="14.00" fill="gray">\think\File</text>
</g>
<!-- \\lib\\File&#45;&gt;\\think\\File -->
<g id="edge4" class="edge"><title>\\lib\\File&#45;&gt;\\think\\File</title>
<path fill="none" stroke="black" d="M846.303,-167.704C825.81,-148.872 791.878,-119.47 759.062,-99 753.559,-95.5669 747.546,-92.3087 741.534,-89.3212"/>
<polygon fill="none" stroke="black" points="742.695,-85.9976 732.161,-84.8632 739.688,-92.319 742.695,-85.9976"/>
</g>
</g>
</svg>
